<?xml version="1.0" standalone="no"?>
<!DOCTYPE svg PUBLIC "-//W3C//DTD SVG 20010904//EN"
 "http://www.w3.org/TR/2001/REC-SVG-20010904/DTD/svg10.dtd">
<svg version="1.0" xmlns="http://www.w3.org/2000/svg"
 width="512.000000pt" height="512.000000pt" viewBox="0 0 512.000000 512.000000"
 preserveAspectRatio="xMidYMid meet">
<metadata>
Created by potrace 1.11, written by Peter Selinger 2001-2013
</metadata>
<g transform="translate(0.000000,512.000000) scale(0.100000,-0.100000)"
fill="#000000" stroke="none">
<path d="M1315 3770 c-279 -32 -514 -140 -688 -317 -137 -140 -227 -305 -272
-500 -67 -287 -25 -628 106 -862 145 -259 371 -426 688 -508 134 -34 399 -43
588 -19 213 27 428 88 575 162 l48 24 0 555 0 555 -415 0 -415 0 0 -215 0
-215 190 0 190 0 0 -174 0 -173 -57 -26 c-127 -57 -205 -72 -373 -71 -141 0
-162 2 -236 27 -192 64 -335 210 -401 412 -24 71 -27 96 -27 230 -1 120 3 163
18 215 71 241 235 402 466 457 96 22 284 19 384 -6 90 -24 181 -71 248 -130
25 -23 48 -41 51 -41 3 0 78 79 167 176 182 198 176 178 76 249 -129 91 -282
150 -471 180 -116 19 -337 26 -440 15z"/>
<path d="M3655 3770 c-279 -32 -514 -140 -688 -317 -137 -140 -227 -305 -272
-500 -67 -287 -25 -628 106 -862 145 -259 371 -426 688 -508 134 -34 399 -43
588 -19 213 27 428 88 576 162 l47 24 0 555 0 555 -415 0 -415 0 0 -215 0
-215 190 0 190 0 0 -174 0 -173 -57 -26 c-127 -57 -205 -72 -373 -71 -141 0
-162 2 -236 27 -192 64 -335 210 -401 412 -24 71 -27 96 -27 230 -1 120 3 163
18 215 71 241 235 402 466 457 96 22 284 19 384 -6 90 -24 181 -71 248 -130
25 -23 48 -41 51 -41 3 0 78 79 167 176 182 198 176 178 76 249 -129 91 -282
150 -471 180 -116 19 -337 26 -440 15z"/>
</g>
</svg>
